<svg id="Layer_1" data-name="Layer 1" xmlns="http://www.w3.org/2000/svg" viewBox="0 0 443.79 323.43"><defs><style>.cls-1{fill:#f35440;}.cls-2{fill:#e6e9ee;}.cls-3{fill:#84d9fc;}.cls-4{fill:#fff;}.cls-5{fill:#ffd05b;}.cls-6{fill:none;stroke:#000;stroke-miterlimit:10;stroke-width:4px;}.cls-7{fill:#f36941;}</style></defs><polygon class="cls-1" points="420.86 65.5 443.79 149.02 0 149.02 21.29 65.5 156.39 65.5 222.71 0 292.36 65.5 420.86 65.5"/><rect class="cls-2" x="18.83" y="149.84" width="407.76" height="173.59"/><rect class="cls-3" x="37.66" y="186.69" width="37.66" height="37.66"/><rect class="cls-3" x="85.97" y="187.5" width="37.66" height="37.66"/><rect class="cls-3" x="36.85" y="228.44" width="37.66" height="37.66"/><rect class="cls-3" x="85.97" y="228.44" width="37.66" height="37.66"/><polygon class="cls-4" points="292.31 323.43 292.07 99.08 222.42 33.57 156.1 99.08 156.39 323.43 292.31 323.43"/><rect class="cls-5" x="190.78" y="243.18" width="65.5" height="80.24"/><rect class="cls-3" x="325.93" y="183.39" width="37.66" height="37.66"/><rect class="cls-3" x="374.24" y="184.21" width="37.66" height="37.66"/><rect class="cls-3" x="325.11" y="226.78" width="37.66" height="37.66"/><rect class="cls-3" x="374.24" y="226.78" width="37.66" height="37.66"/><circle class="cls-6" cx="221.89" cy="95.8" r="22.93"/><rect class="cls-3" x="181.89" y="152.75" width="37.66" height="37.66"/><rect class="cls-3" x="230.2" y="153.57" width="37.66" height="37.66"/><polygon class="cls-7" points="156.1 99.08 222.42 33.57 222.71 0 122.4 99.08 156.1 99.08"/><path class="cls-7" d="M356.16,187.36,250.82,88.29l-.29,33.57,69.65,65.5Z" transform="translate(-28.11 -88.29)"/></svg>